
<svg xmlns="http://www.w3.org/2000/svg" width="2055" height="232" viewBox="0 0 2055 232" focusable="false">
    <path fill="#BEC3D7" fill-rule="evenodd" d="M1154.1803.3756c8.934 0 17.877.395 26.885 1.181 63.339 5.528 140.065 25.153 210.504 53.843 17.203 7.032 33.599 14.367 48.736 21.8 32.25 15.945 60.362 33.074 87.55 49.64 13.4009 8.1653 26.2404 15.9881 39.4391 23.6246 46.7146-6.2029 95.9326-15.2364 148.7427-27.2185 22.56-5.119 45.039-11.263 68.836-17.768 52.667-14.396 107.126-29.282 161.551-31.95 2.712-.134 5.37-.2 7.974-.2 17.191 0 32.1 2.903 45.377 8.815 13.019 5.797 25.022 14.7 37.772 28.017l-.272.125c-19.466-20.332-43.95-38.826-90.828-36.532-54.374 2.666-108.811 17.546-161.454 31.935-23.802 6.506-46.284 12.652-68.855 17.773-53.1442 12.0581-101.9532 20.981-148.5908 27.151a960.2597 960.2597 0 008.7415 4.992c47.6983-4.9685 97.3103-12.805 148.0903-23.4051 26.064-5.427 53.454-12.704 77.619-19.125l3.312-.881c47.336-12.583 96.283-25.596 144.673-29.063 19.85-1.421 36.768.685 51.725 6.444 12.8 4.928 24.634 12.674 37.242 24.374l-.262.135c-19.267-17.879-43.343-33.978-88.671-30.728-48.347 3.463-97.273 16.471-144.59 29.049l-3.313.881c-24.17 6.423-51.566 13.702-77.64 19.131-50.692 10.582-100.2199 18.4101-147.8429 23.3815a886.4512 886.4512 0 003.5831 2.0065 794.162 794.162 0 005.2645 2.9059c48.171-3.559 97.514-10.1082 147.2458-19.5564 25.397-4.801 51.743-11.373 76.429-17.762 5.318-1.376 10.728-2.791 15.96-4.158 42.144-11.016 85.722-22.406 128.431-26.501 19.086-1.83 35.472-.432 50.092 4.276 12.587 4.054 24.254 10.639 36.716 20.727l-.249.146c-19.059-15.426-42.73-29.123-86.515-24.925-42.672 4.091-86.233 15.477-128.359 26.489-5.233 1.368-10.643 2.782-15.96 4.158-24.695 6.39-51.049 12.965-76.458 17.768-49.6353 9.4302-98.8828 15.9724-146.9661 19.5387a736.546 736.546 0 008.823 4.7438c48.7828-2.0607 97.8559-7.2673 146.3991-15.549 21.255-3.595 44.462-8.652 75.245-16.396 9.369-2.357 18.877-4.83 28.073-7.221 37.071-9.638 75.404-19.604 112.717-24.153 18.326-2.233 34.176-1.543 48.46 2.113 12.379 3.17 23.879 8.595 36.189 17.072l-.231.162c-25.766-17.747-50.206-23.289-84.361-19.123-37.283 4.543-75.601 14.506-112.658 24.141-9.197 2.391-18.706 4.863-28.077 7.222-30.795 7.747-54.012 12.805-75.278 16.403-48.4377 8.2635-97.4032 13.4665-146.0831 15.5388a691.973 691.973 0 008.841 4.5853c49.3248-.4418 98.1115-4.2563 145.5073-11.3897 21.802-3.243 45.334-8.02 74.058-15.033 13.321-3.254 26.766-6.774 39.769-10.179 32.093-8.401 65.278-17.09 97.423-21.91 17.567-2.634 32.883-2.648 46.822-.045 12.182 2.276 23.515 6.539 35.663 13.414l-.208.176c-25.113-14.214-49.7-18.198-82.208-13.323-32.121 4.816-65.294 13.501-97.376 21.9-13.005 3.405-26.452 6.925-39.777 10.181-28.736 7.015-52.28 11.795-74.097 15.04-47.2776 7.1149-95.9404 10.9296-145.14 11.3907a630.4731 630.4731 0 008.8513 4.4141c49.7845 1.2983 98.2684-1.0682 144.5648-7.0723 22.041-2.814 45.876-7.285 72.87-13.669 17.241-4.079 34.495-8.689 51.181-13.146 28.427-7.593 55.277-14.765 82.412-19.657 31.44-5.667 55.459-3.409 80.32 7.551l-.177.19c-24.775-10.922-48.718-13.171-80.06-7.522-27.117 4.889-53.96 12.058-82.378 19.649-16.688 4.458-33.946 9.068-51.192 13.149-27.009 6.387-50.859 10.861-72.917 13.677-46.1642 5.9871-94.5011 8.3585-144.1333 7.0892a585.5702 585.5702 0 008.8715 4.2374c50.1436 3.162 98.2977 2.2964 143.5471-2.5958 22.387-2.371 45.834-6.396 71.683-12.304 21.208-4.851 42.185-10.65 62.471-16.257 23.301-6.443 45.311-12.527 67.524-17.261 16.068-3.424 30.312-4.846 43.542-4.342 11.817.448 22.813 2.379 34.605 6.075l-.136.207c-24.393-7.648-47.696-8.163-77.915-1.723-22.2 4.73-44.204 10.813-67.499 17.253-20.291 5.61-41.272 11.41-62.49 16.262-25.866 5.913-49.331 9.941-71.735 12.314-45.0962 4.8761-93.0755 5.7542-143.031 2.6346a551.0083 551.0083 0 008.9407 4.0738c50.6199 5.2217 97.4478 5.8755 142.3841 2.0221 22.27-1.86 45.989-5.541 70.497-10.941 25.32-5.584 49.984-12.751 73.837-19.681 18.134-5.27 35.263-10.246 52.559-14.551 15.338-3.817 29.044-5.937 41.901-6.48 11.499-.486 22.643.297 34.069 2.397l-.084.219c-23.629-4.342-47-3.083-75.776 4.077-17.288 4.302-34.412 9.278-52.542 14.546-23.859 6.933-48.53 14.102-73.864 19.688-24.528 5.405-48.267 9.089-70.557 10.95-27.775 2.382-57.054 3.02-87.021 1.898-17.7214-.664-36.0533-1.9588-54.7757-3.865a546.4544 546.4544 0 008.9324 3.8654c50.784 7.348 97.1884 9.5819 141.17 6.8308 22.359-1.348 45.679-4.571 69.309-9.577 29.702-6.297 58.08-15.116 85.524-23.644 12.849-3.992 24.984-7.763 37.271-11.301 27.913-8.036 50.671-11.091 73.792-9.898l-.024.225c-23.068-1.185-45.78 1.861-73.643 9.882-12.282 3.536-24.416 7.307-37.261 11.299-27.454 8.53-55.842 17.353-85.563 23.653-23.653 5.012-46.994 8.236-69.376 9.586-43.7532 2.7374-89.9014.545-140.3654-6.7044a534.2684 534.2684 0 008.8696 3.6325c50.8008 9.5912 96.7383 13.4583 139.8128 11.8002 22.366-.813 45.285-3.577 68.121-8.212 34.514-7.014 66.704-17.925 97.835-28.476 7.027-2.383 14.295-4.846 21.36-7.183 27.237-9.008 49.323-13.854 71.611-15.709l.039.224c-22.252 1.853-44.305 6.691-71.508 15.689-7.066 2.337-14.331 4.8-21.36 7.182-31.141 10.555-63.343 21.471-97.885 28.489-22.86 4.642-45.804 7.409-68.196 8.222-42.768 1.645-88.3538-2.15-138.7113-11.582a523.3231 523.3231 0 008.7637 3.385c50.6546 11.9444 96.0623 17.492 138.2762 16.9258 22.308-.259 44.828-2.564 66.933-6.85 39.993-7.761 76.175-21.453 111.165-34.695l4.43-1.676c26.873-10.159 48.935-16.996 69.431-21.517l.1.216c-20.476 4.516-42.52 11.348-69.375 21.5l-4.428 1.675c-35.007 13.248-71.205 26.946-111.235 34.715-22.132 4.291-44.679 6.598-67.015 6.857-41.7458.5568-86.608-4.8534-136.5685-16.5098l1.4112.523 1.5673.5753a857.9113 857.9113 0 005.6794 2.0341c50.2176 14.3367 94.9496 21.5827 136.2496 22.1059 22.198.314 44.319-1.535 65.746-5.486 41.758-7.706 79.704-23.182 111.995-37.083 27.828-11.98 47.754-20.292 67.254-27.321l.153.2c-19.492 7.026-39.413 15.335-67.234 27.313-32.31 13.91-70.283 29.395-112.083 37.109-21.457 3.958-43.609 5.807-65.837 5.495-25.081-.318-51.861-3.162-79.594-8.453-16.9831-3.2403-34.4512-7.3863-52.9259-12.5714 53.2486 18.5732 98.2311 28.0563 140.8719 29.7514 22.049.895 43.767-.494 64.558-4.123 42.893-7.491 80.459-24.132 108.393-37.794 14.35-7.018 27.712-13.922 40.635-20.6 8.464-4.373 16.457-8.503 24.451-12.525l.193.182c-7.993 4.022-15.985 8.151-24.448 12.525-12.924 6.678-26.289 13.583-40.641 20.602-19.325 9.45-35.71 16.548-51.566 22.335-19.616 7.161-38.241 12.23-56.937 15.494-20.823 3.636-42.576 5.026-64.657 4.13-24.783-.986-50.202-4.607-77.709-11.071-20.9588-4.9254-42.8918-11.4712-66.881-19.9648-6.0377-1.7281-12.1847-3.5658-18.459-5.5182a565.3015 565.3015 0 01-3.3095-1.0408 873.1735 873.1735 0 01-9.3325-2.3927 617.7674 617.7674 0 01-12.2922-3.3586l-.3484-.0752a673.599 673.599 0 01-21.643-5.0599 723.5068 723.5068 0 01-22.3075-4.5371 789.7988 789.7988 0 01-23.1672-4.029 839.5798 839.5798 0 01-23.7263-3.4639 887.8842 887.8842 0 01-24.2468-2.9074 922.7533 922.7533 0 01-24.7262-2.367 945.5134 945.5134 0 01-25.6243-1.8915 980.2011 980.2011 0 01-25.2964-1.3491c-8.416-.1822-16.7596-.469-25.0219-.8606a973.582 973.582 0 01-33.758-.7691c-47.789-1.921-97.97-8.226-153.412-19.275-48.177-9.599-95.346-21.672-147.593-35.313-56.1197-14.6513-106.832-24.0422-155.1266-28.4687-7.3872 4.1202-14.7411 8.2675-22.0732 12.4026-34.36 19.379-66.816 37.684-100.147 51.897-37.032 15.841-76.323 27.968-116.783 36.042-43.298 8.638-89.262 12.903-136.613 12.671-11.326-.0551-22.8165-.3678-34.45-.9361-8.217-.1002-16.5115-.3286-24.8754-.6846-8.3305-.046-16.736-.219-25.207-.5185-8.3887.0183-16.8466-.087-25.3635-.315a913.0257 913.0257 0 01-25.6524-.0739 948.1106 948.1106 0 01-25.751.2165 989.4719 989.4719 0 01-26.0704.5621c-8.6184.4301-17.2548.7512-25.906.9635a1065.4652 1065.4652 0 01-25.8915 1.4327 1123.0642 1123.0642 0 01-25.7587 1.9648 1193.2944 1193.2944 0 01-19.0718 1.97c-2.2212.214-4.5294.433-6.9141.654-2.5429.3526-5.0785.6962-7.6094 1.0315-5.8705.7818-12.0737 1.588-18.5047 2.3707-42.3612 7.2549-87.0425 13.6535-129.3943 9.0694-30.41-3.292-52.744-13.114-68.277-30.024-14.645-15.944-21.702-36.742-26.674-54.984l.322-.042c10.598 38.883 26.638 77.461 94.68 84.826 40.7796 4.4145 83.746-1.3715 124.714-8.2908-12.8114 1.507-26.4028 2.8803-39.984 3.7587-27.808 1.822-52.143 1.311-74.397-1.566-30.593-3.955-54.093-13.925-71.84-30.478-16.284-15.187-25.914-34.131-33.895-52.34l.313-.065c16.228 37.022 37.739 73.902 105.483 82.66 22.222 2.873 46.527 3.385 74.304 1.563 15.209-.9829 30.4326-2.5876 44.5577-4.306 1.3313-.2274 2.661-.4564 3.9883-.6859 2.1327-.3688 4.2608-.742 6.3848-1.1194-13.258 1.07-27.8618 2.0146-42.4763 2.4218-28.04.823-53.042-.476-76.435-3.973-30.73-4.594-55.394-14.708-75.402-30.921-18.539-15.022-30.943-33.533-41.116-49.705l.3-.09c23.091 36.71 49.36 70.489 116.288 80.494 23.364 3.493 48.338 4.792 76.352 3.968 15.4874-.4304 30.9644-1.4661 44.84-2.6146 3.633-.652 7.2555-1.3167 10.8703-1.9942-16.035.7224-29.9282 1.012-43.2733.9193-27.817-.137-54.219-2.282-78.474-6.379-30.808-5.203-56.638-15.46-78.966-31.354-19.392-13.806-33.928-30.148-48.333-47.081l.282-.114c25.169 29.585 56.493 66.405 127.095 78.329 24.231 4.092 50.608 6.237 78.399 6.372 13.7828.0965 28.1519-.2152 44.8633-.992 3.7294-.703 7.45-1.4194 11.1668-2.1492-15.8593.1707-30.0832-.0123-43.6089-.5484-27.909-1.043-54.998-3.999-80.512-8.785-30.155-5.655-56.612-15.713-80.882-30.749-21.388-13.25-38.313-28.49-54.681-43.229l-2.516-2.266.259-.137 2.517 2.265c31.89 28.717 68.034 61.265 135.388 73.898 25.493 4.781 52.558 7.734 80.445 8.777 13.8637.5498 28.4612.7282 44.803.535 3.7789-.7443 7.5528-1.5031 11.327-2.2757-15.6474-.3422-30.1057-.9888-43.7229-1.9508-27.924-1.905-55.698-5.67-82.553-11.189-28.221-5.801-54.107-15.086-79.137-28.388-22.051-11.719-40.536-24.898-58.412-37.645-3.715-2.649-7.558-5.389-11.306-8.021l.233-.159c3.748 2.633 7.592 5.373 11.309 8.023 34.849 24.848 74.348 53.012 137.406 65.973 26.835 5.514 54.589 9.277 82.492 11.18 13.8978.9817 28.672 1.6349 44.6926 1.9707 3.801-.7798 7.6027-1.5742 11.4089-2.3826-15.3882-.8074-29.8505-1.8941-43.7092-3.2793-27.843-2.716-56.303-7.291-84.591-13.594-25.919-5.777-50.661-14.217-75.642-25.804-22.023-10.215-41.352-21.463-60.042-32.341-8.242-4.796-16.026-9.326-23.948-13.722l.205-.176c7.925 4.397 15.711 8.928 23.953 13.725 36.4 21.184 77.658 45.194 135.574 58.102 28.27 6.301 56.713 10.871 84.538 13.586 14.0994 1.41 28.8246 2.5104 44.5154 3.3221a1906.0042 1906.0042 0 0011.4821-2.4826c-15.1317-1.2353-29.5717-2.7373-43.6177-4.532-27.664-3.472-56.811-8.856-86.632-16.001-52.044-12.469-91.517-31.767-129.69-50.43-14.011-6.85-27.247-13.32-40.718-19.249l.176-.191c13.478 5.931 26.716 12.404 40.732 19.256 38.154 18.653 77.607 37.942 129.606 50.4 29.807 7.142 58.938 12.522 86.584 15.992 14.2626 1.823 28.931 3.3434 44.316 4.5888a2079.6709 2079.6709 0 0011.5762-2.5794c-14.98-1.6394-29.5334-3.5459-43.5245-5.7032-27.748-4.222-56.753-10.243-88.673-18.407-45.41-11.614-83.044-27.526-119.438-42.913-21.223-8.973-41.269-17.449-61.745-24.581l.148-.202c20.487 7.136 40.539 15.614 61.767 24.59 36.381 15.382 74 31.288 119.382 42.894 31.905 8.161 60.895 14.178 88.63 18.397 14.1817 2.1871 28.9417 4.1159 44.138 5.7705a2363.8 2363.8 0 0011.6023-2.6544c-14.769-2.0046-29.2719-4.2813-43.3853-6.8118-27.3-4.847-56.973-11.655-90.713-20.811-38.134-10.35-72.092-23.146-104.932-35.522-29.838-11.244-58.021-21.864-87.029-29.789l.121-.211c29.027 7.931 57.218 18.555 87.064 29.802 32.831 12.372 66.779 25.165 104.896 35.509 33.727 9.153 63.387 15.958 90.675 20.803 14.2866 2.5616 28.9733 4.8627 43.9299 6.8854 3.867-.8954 7.7502-1.8044 11.6547-2.727-14.5803-2.344-29.0322-4.9695-43.24-7.8566-27.057-5.461-56.53-12.838-92.753-23.216-30.226-8.66-58.699-18.53-86.234-28.073-39.777-13.787-77.349-26.808-116.506-35.056l.095-.216c39.184 8.253 76.768 21.279 116.558 35.07 27.53 9.542 55.998 19.408 86.213 28.066 36.211 10.375 65.674 17.749 92.719 23.208 14.3678 2.9197 28.9851 5.5714 43.733 7.9358a3297.644 3297.644 0 0011.7032-2.7921 1109.5809 1109.5809 0 01-43.1012-8.8442c-33.88-7.624-66.93-17.23-94.794-25.621-21.634-6.516-42.871-13.511-63.409-20.274-50.937-16.776-99.049-32.621-150.11-40.674l.072-.22c51.097 8.058 99.225 23.908 150.179 40.689 20.535 6.763 41.77 13.757 63.399 20.271 27.856 8.389 60.899 17.993 94.765 25.614a1110.0965 1110.0965 0 0043.5483 8.9274 3953.8542 3953.8542 0 0011.7506-2.8481c-14.2739-2.9613-28.6311-6.2288-42.9729-9.7823-33.359-8.248-66.255-18.344-96.835-28.025-12.688-3.987-25.465-8.115-37.82-12.107-62.737-20.27-121.994-39.417-186.482-46.661l.053-.222c28.976 3.254 59.846 9.335 94.375 18.59 30.869 8.275 62.044 18.347 92.192 28.088 12.356 3.992 25.13 8.12 37.818 12.106 30.573 9.678 63.462 19.773 96.809 28.019 14.4802 3.5872 28.976 6.8828 43.3865 9.866 16.4263-4.009 33.3503-8.2424 51.0413-12.6949 21.153-5.323 42.724-10.915 63.585-16.322 73.349-19.011 148.517-38.4938 225.4677-51.7054 12.709-2.712 25.493-5.2346 38.3567-7.516 12.2553-2.7351 24.602-5.2452 37.049-7.4688 11.532-2.6534 23.1633-5.0632 34.9059-7.1677 21.1483-4.995 42.6902-9.0285 64.7208-11.6701a634.5426 634.5426 0 018.9218-1.6726c8.8995-2.1201 17.8865-4.0545 26.971-5.7726 19.6216-6.27 39.7008-11.4912 60.3789-15.1704 10.4467-2.7045 20.7068-4.947 30.906-6.7598 10.1895-2.6807 20.2148-4.9005 30.189-6.6894 10.1906-2.7288 20.2287-4.978 30.2235-6.7765 11.914-3.2399 23.6346-5.7981 35.3299-7.7218 17.262-2.839 34.136-4.249 51.039-4.249zm499.368 193.8756l1.4216.4399a816.577 816.577 0 0012.8876 3.8655l-.3649-.131-1.7483-.631a532.6568 532.6568 0 01-4.6752-1.7327 815.968 815.968 0 01-7.5208-1.8107zm-1402.9377 1.6571l-.7917.0709c-2.4667.219-4.9995.4372-7.588.6516-2.899.52-5.8045 1.032-8.7188 1.5359l.7235-.125c4.7371-.594 9.3311-1.1944 13.7375-1.7811.8786-.1164 1.7577-.2338 2.6375-.3523zm15.1883-2.136l-.644.0353c-3.5946.1962-7.0783.3728-10.466.5304a1432.1233 1432.1233 0 01-10.1017 1.8678c3.8109-.323 7.4896-.6526 11.0026-.978 3.3902-.4693 6.7927-.9545 10.209-1.4555zm1375.6054-3.4443l.6768.2273a562.265 562.265 0 007.836 2.5544 820.727 820.727 0 009.4628 2.3138 528.021 528.021 0 01-8.1872-3.188 875.2428 875.2428 0 01-9.7884-1.9075zm-1364.6669 2.8047l-1.02.062c-2.5192.1543-4.984.2998-7.3987.4368-2.5963.3852-5.1857.762-7.768 1.1298l.9618-.092 1.0021-.0962c4.7245-.4495 9.4649-.9295 14.2228-1.4404zm2.3941-1.385l-.5849.0129c-3.9278.083-7.7526.1467-11.4864.191a1482.378 1482.378 0 01-10.7732 2.0845c3.8605-.1845 7.8475-.3938 11.9815-.6282a1336.4892 1336.4892 0 0010.863-1.6602zm12.663-.3275l-.1867.0048c-3.6798.1103-7.269.2054-10.776.2854-3.368.5338-6.7194 1.0512-10.0563 1.5533 2.0551-.12 4.1477-.246 6.2791-.3781 1.514-.0916 3.0295-.1864 4.5462-.2846 3.3884-.3783 6.7861-.7717 10.1936-1.1808zm10.441-.3483l-2.6114.0961a1062.335 1062.335 0 01-5.3288.1776 1165.619 1165.619 0 01-7.7987.9276 1110.9316 1110.9316 0 0015.7389-1.2013zm1329.578-2.7235l.2535.071a618.5208 618.5208 0 008.5123 2.2967c1.9146.502 3.8218.9954 5.7216 1.48a558.6508 558.6508 0 01-6.7558-2.243 926.87 926.87 0 01-7.7316-1.6047zm-1.0684-1.7154l.1983.071a564.6513 564.6513 0 008.7186 3.0369 880.8207 880.8207 0 0010.4145 2.0482 535.275 535.275 0 01-8.5796-3.5334 914.575 914.575 0 01-10.7519-1.6227zM279.38 189.4723l-2.1312.4363c-2.9878.6093-5.9758 1.21-8.9658 1.802a1275.039 1275.039 0 0012.5109-.2256 1351.463 1351.463 0 0011.1805-1.8168 1202.5658 1202.5658 0 01-12.5944-.1959zm13.9087.2085l-.5551.093c-3.43.5737-6.839 1.1308-10.23 1.6718 2.969-.0719 5.9975-.1539 9.0901-.2466.892-.0252 1.784-.0516 2.6762-.079 3.6242-.4422 7.2599-.9025 10.9074-1.3808-4.0393-.0027-8.0003-.022-11.8886-.0584zm24.2018.0144l-2.0102.0168c-2.5164.0183-5.034.0275-7.5525.0275l-1.0074-.0003a1247.369 1247.369 0 01-10.1322 1.3003c3.5057-.1165 7.0123-.2503 10.5201-.4015 3.3884-.299 6.7825-.613 10.1822-.9428zm10.4969-.149l-2.447.0434c-1.7856.0304-3.5718.0562-5.3586.0774-2.5692.2542-5.1358.4997-7.6995.7362a1082.293 1082.293 0 0015.505-.857zm575.6738-113.806l-.4735.251c-10.1933 5.386-20.3163 10.8475-30.3975 16.2864-33.594 18.125-65.327 35.245-97.917 48.763-36.229 15.118-74.566 26.831-113.946 34.813-42.182 8.541-86.855 13.068-132.781 13.456-2.758.0232-5.5254.0315-8.3023.025 57.4102 2.212 112.0194-1.7911 163.2363-12.008 40.431-8.069 79.695-20.187 116.702-36.017 33.312-14.206 65.759-32.505 100.111-51.879 7.233-4.0794 14.5085-8.1828 21.8343-12.2689a728.6921 728.6921 0 00-18.0663-1.4214zm-597.983 111.8073l-.5522.0974c-3.5423.6244-7.0596 1.231-10.5548 1.8204 3.7833.0315 7.636.0472 11.5616.0472l.7523.0012c3.7223-.4928 7.458-1.0048 11.2067-1.5355a1310.2039 1310.2039 0 01-12.4136-.4307zm13.7588.47l-1.2974.1844c-3.184.4507-6.3587.8878-9.5243 1.3116 3.8148-.0018 7.6268-.0254 11.4363-.07 3.637-.3607 7.2804-.7399 10.93-1.1371a992.3508 992.3508 0 01-10.3235-.2541c-.4077-.0115-.8148-.023-1.2211-.0348zm-27.7963-1.1087l-.647.1374c-3.5389.7518-7.0739 1.4917-10.608 2.2196 4.2023.0841 8.4914.1466 12.873.1877 3.754-.6297 7.5324-1.279 11.3398-1.949a1159.4567 1159.4567 0 01-12.9578-.5957zm41.2142 1.4332l-2.4858.2713c-2.5384.2738-5.0748.539-7.609.7955a1051.075 1051.075 0 0010.4759-.2043c3.3833-.227 6.7674-.471 10.1518-.7312a994.8108 994.8108 0 01-10.533-.1313zm1286.7331-3.5286l.594.1788a614.4938 614.4938 0 008.0903 2.361c3.203.6925 6.386 1.363 9.55 2.012a560.3025 560.3025 0 01-8.3435-2.932 949.7717 949.7717 0 01-9.8908-1.6198zM346.0988 188.49l-.978.0769c-2.1774.1707-4.3547.3349-6.5318.4924 5.0612-.1504 10.117-.3381 15.1668-.563-2.5506.0075-5.1029.0055-7.657-.0063zM885.05 74.7551l-2.355 1.1745c-12.5465 6.2596-24.9792 12.6593-37.3488 19.0265-32.785 16.875-63.752 32.816-95.554 45.624-35.434 14.397-72.817 25.696-111.109 33.582-41.075 8.447-84.46 13.239-128.948 14.243-2.165.0489-4.3357.0889-6.512.12 2.9088.1713 5.8112.3267 8.7066.4664 52.105.6167 101.8994-3.8374 148.9054-13.3549 39.353-7.977 77.663-19.682 113.869-34.79 32.574-13.51 64.298-30.626 97.885-48.747 10.109-5.4539 20.3021-10.9532 30.5982-16.3896a701.5852 701.5852 0 00-18.1374-.9549zM499.5413 188.5688l-1.721.015a805.5544 805.5544 0 01-3.288.018 838.593 838.593 0 009.9389.2681 838.1111 838.1111 0 01-4.93-.3011zm-12.7375-.9116l-.3822.0122a818.352 818.352 0 01-8.4499.2219c3.0324.1587 6.058.302 9.0763.4289 2.9151.0144 5.823.014 8.724-.0018a846.0108 846.0108 0 01-8.9682-.6612zm379.278-113.393l-2.2303 1.0396c-15.8053 7.3765-31.4172 15.025-46.9288 22.6245-31.65 15.506-61.544 30.152-92.21 42.19-35.072 13.769-71.501 24.653-108.273 32.352-39.984 8.357-82.079 13.414-125.115 15.03-.729.0274-1.4587.0538-2.189.0792 3.4277.2584 6.8459.4958 10.2546.7119 48.4981-.4782 95.0357-5.2639 139.2-14.3463 38.266-7.88 75.624-19.172 111.037-33.562 31.786-12.801 62.746-28.737 95.525-45.609 12.9775-6.6802 26.0958-13.433 39.389-20.0383a684.6986 684.6986 0 00-18.4595-.4716zM358.7989 187.408l-.2845.0247a1085.715 1085.715 0 01-9.7248.84c3.4917.0056 6.979-.0063 10.4615-.0365 3.3346-.166 6.6665-.3486 9.9956-.5475a974.6229 974.6229 0 01-10.4478-.2807zm-13.3451-.52l-1.6414.1974c-3.0645.366-6.1273.7198-9.1875 1.061 3.8228.0601 7.6405.0993 11.4529.1167 3.621-.2874 7.2421-.5931 10.8633-.9172a983.0366 983.0366 0 01-11.4873-.4579zm129.0665 1.0694l-.4367.0067c-1.6979.0279-3.3989.0506-5.1028.0682 3.667.0974 7.324.1709 10.9705.2206a892.1969 892.1969 0 01-5.431-.2955zm-102.4902-.2123l-1.3885.0856c-1.9566.1195-3.9142.2334-5.8728.3417 4.8914-.069 9.7728-.175 14.6441-.317a976.534 976.534 0 01-7.3828-.1103zm-40.1475-1.5633l-.1286.0195a1310.8258 1310.8258 0 01-10.9966 1.6273c3.9983.1188 7.9905.2137 11.9772.2849 3.739-.412 7.484-.8436 11.2352-1.294-2.926-.1385-5.8548-.2896-8.7858-.4538-1.1046-.0601-2.205-.1214-3.3014-.1839zm1288.6172-3.326l.874.3305a576.0695 576.0695 0 008.2171 3.032c3.714.5881 7.4045 1.1495 11.072 1.6843a541.5582 541.5582 0 01-8.7618-3.8063 947.9793 947.9793 0 01-11.4013-1.2406zm-1158.8559 4.2658l-1.7324.0675c-2.4603.0935-4.9269.1765-7.3994.249 3.1355.1425 6.264.2683 9.3851.3769a868.3184 868.3184 0 009.0217-.0718 892.047 892.047 0 01-9.275-.6216zm-12.4302.407l-2.4206.0586a878.7017 878.7017 0 01-3.6174.075c4.003.075 7.9951.123 11.9755.1436a926.254 926.254 0 01-5.9375-.2772zm-131.2012-2.2137l-.2861.0528c-3.6956.684-7.3612 1.3484-10.9999 1.994 4.5615.177 9.2076.3315 13.9447.4645l-1.2615-.0353c3.776-.5385 7.5653-1.096 11.3689-1.6725-4.3158-.2494-8.5694-.5171-12.766-.8035zm155.8908 1.2264l-.9896.0536a837.341 837.341 0 01-9.0604.4353c3.512.242 7.015.463 10.5086.6619a866.4998 866.4998 0 009.978-.2328 892.1362 892.1362 0 01-10.4366-.918zm-75.8949.8357l-2.821.1305c-1.357.061-2.715.1192-4.074.1746a947.6354 947.6354 0 0013.7615-.119 951.3834 951.3834 0 01-6.8665-.186zm-13.3152-.5023l-1.5816.1175c-2.7537.2022-5.5096.3932-8.2676.573 3.4464.0537 6.8873.0891 10.322.106a982.919 982.919 0 009.7952-.3933 938.4158 938.4158 0 01-10.268-.4032zm38.9942.4448l-1.0969.0399c-1.788.0617-3.5787.1184-5.3717.1699 4.3215.042 8.6306.053 12.9275.033a927.536 927.536 0 01-6.459-.2428zm-52.315-1.1324l-2.1427.218c-2.8643.289-5.7288.5665-8.5934.8326 3.8097.116 7.612.209 11.4072.2794 3.5886-.2237 7.1734-.4668 10.7546-.7287-3.8012-.1777-7.61-.378-11.4256-.6013zm64.8578.5986l-.2682.0133c-3.0398.15-6.0879.2848-9.1436.4045 3.2394.1199 6.4721.2226 9.6976.3076 3.1074-.0373 6.2086-.09 9.3031-.1587a900.9274 900.9274 0 01-9.5889-.5667zm-25.6108-.0962l-.7294.0443c-2.9665.179-5.9392.3443-8.9174.4962 3.3216.0905 6.6359.163 9.9432.2175 3.2022-.072 6.398-.1603 9.588-.2649a917.43 917.43 0 01-9.8844-.493zm454.9044-112.432a677.4161 677.4161 0 00-18.4093.0433c-19.6892 8.4955-39.0594 17.4932-58.2738 26.4191-30.624 14.227-59.549 27.663-89.209 38.938-34.399 13.075-69.871 23.546-105.435 31.122-38.077 8.0937-77.9685 13.3635-118.611 15.6678a859.253 859.253 0 0011.071.9404c44.969-1.4372 88.3167-6.487 129.689-15.1339 36.748-7.694 73.154-18.572 108.205-32.332 30.651-12.033 60.54-26.676 92.183-42.179 15.4213-7.555 31.0431-15.2085 46.9128-22.6108zM303.8727 184.262l-1.396.3064a1888.0617 1888.0617 0 01-9.9802 2.1578c4.3072.2195 8.6877.4172 13.1481.5937 3.7848-.6688 7.5985-1.358 11.4447-2.0685a1118.6005 1118.6005 0 01-13.2166-.9894zm144.7369 1.8222l-2.0253.1274a886.7972 886.7972 0 01-8.234.4665c3.5854.2214 7.162.42 10.7292.5966a887.5156 887.5156 0 0010.2214-.3256 898.7909 898.7909 0 01-10.6913-.865zm-90.6548-.7746l-.6755.0894a1191.861 1191.861 0 01-10.456 1.323c3.9915.1778 7.9752.3303 11.9513.4583a1085.785 1085.785 0 0011.1824-1.078 962.9578 962.9578 0 01-12.0022-.7927zm39.2925.5457l-1.6949.1469c-2.9781.2555-5.959.4979-8.9423.7272 3.7698.16 7.5313.2974 11.2843.412a969.8665 969.8665 0 0010.6106-.5709 948.9783 948.9783 0 01-11.2577-.7152zm25.8436-.0108l-1.51.1115a942.9487 942.9487 0 01-8.9488.6085c3.6577.1934 7.3067.364 10.9468.5123a915.6295 915.6295 0 0010.4303-.4367 927.0192 927.0192 0 01-10.9183-.7956zm37.7532-.6253l-1.117.0867a865.3356 865.3356 0 01-9.5188.6759c3.7705.3178 7.531.612 11.2808.8813a842.52 842.52 0 0010.6169-.4916 915.1291 915.1291 0 01-11.2619-1.1523zm-116.5797-.9842l-1.072.1738c-3.4204.551-6.8289 1.0869-10.226 1.6074l2.2436.1236c3.3774.1893 6.7497.361 10.1168.5155 3.7903-.459 7.5866-.9378 11.3887-1.4357-2.3325-.172-4.6677-.352-7.0048-.5406-1.82-.1442-3.6355-.2922-5.4463-.444zm39.5941.5955l-1.2367.1402c-3.2813.3719-6.5631.7289-9.8452 1.0708 3.9876.2267 7.9656.4286 11.9344.6052 3.6994-.2775 7.395-.5752 11.0865-.893a967.8608 967.8608 0 01-11.939-.9232zm1226.0743-1.7051l1.6345.3982a673.4523 673.4523 0 0013.1415 3.05 629.7136 629.7136 0 01-6.9919-2.0782c-.8432-.1446-1.688-.2903-2.5342-.4374a712.5809 712.5809 0 01-5.2499-.9326zm-1174.5017 1.7179l-2.23.1938a926.005 926.005 0 01-8.5701.6919c3.8343.2948 7.6581.5642 11.4717.8086a890.0143 890.0143 0 0010.7998-.6034 921.4087 921.4087 0 01-11.4714-1.091zm-25.7541-.1527l-1.7152.17c-3.0795.3025-6.1622.591-9.2478.8654 3.9406.2672 7.8715.5086 11.7924.7244a967.952 967.952 0 0010.9456-.7361 948.7649 948.7649 0 01-11.775-1.0237zm436.7907-110.379l-.8963.0156c-4.0046.073-8.0033.1817-11.998.3256-26.0824 9.875-51.5736 20.6484-76.7974 31.309-28.227 11.93-54.891 23.199-82.226 33.235-33.74 12.388-68.258 22.444-102.597 29.892-35.4546 7.6707-72.3575 13.0565-109.8067 16.0286 3.8923.4158 7.7728.8039 11.642 1.165 41.4963-2.2664 81.7001-7.5114 120.3124-15.7194 35.542-7.57 70.995-18.035 105.373-31.103 29.647-11.27 58.566-24.705 89.184-38.927 19.0645-8.8561 38.281-17.7835 57.81-26.2214zm762.1916 107.1097l1.3264.4232a621.6517 621.6517 0 007.831 2.4346 977.5875 977.5875 0 0010.5144 1.739 577.4928 577.4928 0 01-8.807-3.2755 958.7732 958.7732 0 01-10.8648-1.3213zm-1238.2835 2.1882l-2.9883.4212c-2.7732.3874-5.5463.765-8.3188 1.1324 4.106.2915 8.2024.557 12.2894.796 3.7774-.3888 7.5549-.7974 11.3317-1.226a995.15 995.15 0 01-12.314-1.1236zm-40.0467-.6264l-1.6148.3108a1590.687 1590.687 0 01-9.805 1.8545c4.2578.2873 8.5752.5555 12.9573.8052a1364.8976 1364.8976 0 0011.457-1.7978 1166.7594 1166.7594 0 01-12.9945-1.1727zm117.3078.7055l-.274.0278a915.9369 915.9369 0 01-11.2687 1.0689l.5825-.0522c3.9511.394 7.891.761 11.8198 1.101a890.891 890.891 0 0010.9605-.7667 923.9208 923.9208 0 01-11.8201-1.3788zm-51.402-.3469l-.226.028c-3.6652.4612-7.3314.9037-10.9981 1.3275 4.0946.3377 8.1786.6473 12.2521.9296 3.749-.3285 7.4936-.6774 11.2337-1.047a960.2245 960.2245 0 01-12.2617-1.238zm25.7603.0415l-1.6575.1846c-3.1495.3487-6.3025.6827-9.4588 1.002 4.0433.3715 8.0756.715 12.0967 1.031a922.0685 922.0685 0 0011.1196-.8947 929.8218 929.8218 0 01-12.1-1.323zm-105.868-1.8531l-2.116.477c-3.1341.7051-6.26 1.4012-9.3796 2.088 4.3903.3525 8.8392.6823 13.3539.9905a1590.106 1590.106 0 0011.5299-2.181 1117.03 1117.03 0 01-13.3882-1.3745zm40.4691.6517l-1.8758.3193c-3.1862.541-6.3617 1.069-9.527 1.5837 1.5148.1263 3.033.2496 4.5542.3702 2.6958.2174 5.3878.4235 8.076.6182 3.8196-.5032 7.645-1.0264 11.476-1.569-1.6865-.1666-3.3741-.3375-5.063-.5129a1144.5373 1144.5373 0 01-7.6404-.8095zM832.8188 74.6819l-.6712.0238c-5.582.213-11.1567.495-16.729.8455-30.19 10.423-59.602 22.0937-88.6584 33.6231-25.372 10.068-51.607 20.479-77.291 29.562-33.104 11.707-66.668 21.35-99.76 28.662-32.8365 7.2373-66.7604 12.6695-101.0222 16.1833 4.0303.4902 8.0487.9522 12.0553 1.3857 38.0963-2.9564 75.2169-8.3277 111.1127-16.0945 34.319-7.443 68.819-17.494 102.542-29.876 27.326-10.033 53.985-21.3 82.209-33.228 25.0351-10.581 50.3334-21.273 76.2128-31.0869zM382.697 181.7913l-1.8314.2783c-3.1784.481-6.3577.9489-9.5371 1.4038 4.1836.4048 8.3565.7806 12.5187 1.1282 3.8-.4357 7.5997-.8911 11.3985-1.3666a978.0228 978.0228 0 01-12.5487-1.4437zm51.502.1441l-1.5212.1886c-3.2168.3966-6.4376.7778-9.662 1.1436 4.1182.4732 8.2245.9164 12.319 1.3307a939.927 939.927 0 0011.1753-1.0496 939.8717 939.8717 0 01-12.3111-1.6133zm-25.6896-.2125l-1.7962.2466c-3.1637.4296-6.3282.8454-9.4934 1.2472 4.1702.444 8.3288.8586 12.476 1.2444a1015.888 1015.888 0 0011.294-1.1946 968.4735 968.4735 0 01-12.4804-1.5436zm-65.9143-1.1603l-.8167.1639c-3.585.719-7.138 1.42-10.6611 2.1032 4.3472.4144 8.725.8066 13.1304 1.1764 3.8234-.619 7.6619-1.2574 11.516-1.9151a1143.6054 1143.6054 0 01-13.1686-1.5284zm1254.7767-.6488l1.5137.4006c2.4681.6502 4.9341 1.285 7.4002 1.9047a719.2405 719.2405 0 009.6766 1.7402 617.0657 617.0657 0 01-8.5895-2.703 945.7325 945.7325 0 01-4.8308-.6335 778.6739 778.6739 0 01-5.1702-.709zm13.1202-.9605l1.2564.5018a596.4407 596.4407 0 007.908 3.0797c3.8932.453 7.7634.8797 11.6116 1.28a569.8357 569.8357 0 01-8.8279-4.0332 989.6855 989.6855 0 01-11.948-.8283zM814.5245 75.6083l-1.1256.073a689.8371 689.8371 0 00-16.544 1.2905c-34.499 10.809-68.0287 23.2644-101.098 35.5487-23.43 8.704-47.659 17.704-71.369 25.754-32.504 11.037-65.113 20.266-96.922 27.432-30.3193 6.8136-61.1645 12.1918-92.3785 16.1174a924.2964 924.2964 0 0012.4747 1.6199c34.7524-3.5151 68.8365-8.9414 102.0481-16.2615 33.075-7.308 66.622-16.946 99.71-28.649 25.676-9.08 51.909-19.489 77.277-29.555 28.8214-11.4363 57.9926-23.0114 87.9273-33.37zM368.8633 180.0252l-.1844.0337c-3.7703.6789-7.525 1.3395-11.265 1.9821 2.2857.2497 4.5764.4918 6.8708.7273 1.9907.2067 3.979.407 5.965.6011a1237.1583 1237.1583 0 0011.499-1.6933c-.9941-.1224-1.989-.246-2.9844-.371a1107.27 1107.27 0 01-9.901-1.28zm51.8342-.0468l-.6135.0916c-3.5663.529-7.134 1.0402-10.7028 1.5338a934.7516 934.7516 0 0012.6265 1.5486 997.2722 997.2722 0 0011.315-1.3378 971.1014 971.1014 0 01-12.6252-1.8362zm-25.767-.1212c-4.7048.7682-9.394 1.5058-14.0649 2.2124l2.6714-.4066c4.242.5123 8.4728.995 12.6921 1.4482 3.8077-.4798 7.6147-.98 11.4204-1.5005a983.0771 983.0771 0 01-14.3582-1.9921zm-66.5756-1.125l-.3998.0915c-3.7288.863-7.4415 1.7133-11.1417 2.551 4.4608.483 8.9594.9422 13.4917 1.3774 3.8186-.7388 7.671-1.4982 11.5615-2.279-4.526-.5548-9.031-1.1353-13.5117-1.741zm1269.7751-.7881l1.6129.5455a638.362 638.362 0 007.736 2.5516c3.7567.4838 7.4915.9438 11.2055 1.3799a592.0803 592.0803 0 01-8.9998-3.5293 996.253 996.253 0 01-11.5546-.9477zm-1243.2934.1122l-1.6294.3388c-3.3284.69-6.6277 1.3646-9.9 2.024 4.407.5352 8.8334 1.046 13.2758 1.5324a1452.833 1452.833 0 0011.5401-2.0259 1104.626 1104.626 0 01-13.2865-1.8693zm440.8999-100.982l-1.0742.0985-2.6782.2549c-8.1828.7947-16.3463 1.6855-24.4905 2.6647-32.8675 9.9178-64.92 21.4357-96.5408 32.7986-23.52 8.451-47.84 17.191-71.646 24.923-31.967 10.383-63.623 19.198-94.085 26.201-27.747 6.3643-55.7046 11.6524-83.7509 15.8484a950.0142 950.0142 0 0012.7376 1.8406c31.4804-3.9327 62.5865-9.3432 93.1554-16.2135 31.795-7.162 64.39-16.387 96.88-27.419 23.705-8.048 47.93-17.047 71.358-25.751 32.761-12.1697 65.9736-24.507 100.1346-35.2463zm-414.6476 100.696l-.6688.1251c-3.6208.6823-7.2268 1.348-10.8186 1.997 3.0716.4098 6.1456.8062 9.2208 1.1897 1.2579.158 2.5148.3136 3.7707.4665 3.8286-.5861 7.6623-1.1901 11.5007-1.8132l-.8024-.1168a1075.6995 1075.6995 0 01-12.2024-1.8482zm1206.662.7299l1.8917.4028a723.026 723.026 0 0012.8938 2.6043 682.5527 682.5527 0 01-7.0904-1.8658 805.384 805.384 0 01-7.6951-1.1413zm-1180.665-.6901l-2.6845.4633c-2.9122.4985-5.819.9855-8.72 1.461a990.2915 990.2915 0 0012.8327 1.7578 1105.1182 1105.1182 0 0011.4128-1.6308 997.0543 997.0543 0 01-12.1076-1.9298l-.7333-.1215zm1179.02-.9958l.0613.0168c3.1306.8899 6.2522 1.7533 9.369 2.5916 2.3548.337 4.7103.663 7.0668.9781 1.1987.1603 2.3952.3181 3.5895.4736a645.5452 645.5452 0 01-9.0583-3.0177 1057.1338 1057.1338 0 01-7.234-.6694 845.883 845.883 0 01-3.7944-.373zm-1245.5182-.9459l-.8991.2116c-3.5856.8466-7.1533 1.682-10.7062 2.5057 4.5084.6071 9.0415 1.1888 13.5954 1.7447 3.827-.7699 7.6907-1.5603 11.5944-2.372a1100.9727 1100.9727 0 01-13.5845-2.09zm26.4725-.3989l-.224.048c-3.8218.821-7.6038 1.622-11.3487 2.4033 4.45.6505 8.9074 1.2751 13.3698 1.8727 3.8354-.6913 7.687-1.4015 11.5556-2.1307a1075.2596 1075.2596 0 01-13.3527-2.1933zm399.0834-95.215l-3.077.379a1168.9732 1168.9732 0 00-16.3465 2.149c-37.0084 10.0358-73.0797 22.022-108.6105 33.8291-20.969 6.968-42.654 14.173-63.884 20.741-31.993 9.898-61.839 18.067-91.247 24.971-25.1834 5.9014-50.378 11.0486-75.2073 15.3682l.124.0198c4.28.7093 8.548 1.3876 12.8038 2.0351 28.2704-4.211 56.452-9.532 84.4197-15.9467 30.45-7 62.093-15.811 94.049-26.191 23.8-7.73 48.117-16.469 71.634-24.919 31.236-11.224 62.8927-22.5995 95.3418-32.4354zm-372.8817 95.164l-.9965.1959a1523.7252 1523.7252 0 01-10.505 2.0278 1049.043 1049.043 0 0011.5989 1.7544c.4963.0726.9925.1448 1.4885.2165 3.8255-.6237 7.656-1.266 11.4907-1.9272a1057.7714 1057.7714 0 01-13.0766-2.2674zm1207.3642-.5116l1.4085.59a626.2555 626.2555 0 007.7562 3.176c4.0413.3075 8.0699.5893 12.0857.8454a597.2357 597.2357 0 01-8.7943-4.2096c-4.1435-.109-8.2956-.2427-12.4561-.4018zm-25.8624.6888l1.995.4621a742.7554 742.7554 0 007.2145 1.623c3.213.508 6.4255.9964 9.6383 1.4642a679.8415 679.8415 0 01-8.8304-2.4643 855.5778 855.5778 0 01-10.0174-1.085zm13.0348-1.2585l1.6188.5779a665.1454 665.1454 0 007.8128 2.7223c3.9304.3482 7.8498.673 11.7577.9738a626.955 626.955 0 01-9.0577-3.7316c-4.036-.1566-8.08-.3375-12.1316-.5424zm-1234.964-1.3915l-1.2834.3084c-3.4783.8355-6.937 1.6605-10.3789 2.4752 4.5403.7255 9.0926 1.4236 13.6537 2.0938a2007.3827 2007.3827 0 0011.619-2.4586 1108.7751 1108.7751 0 01-13.6103-2.4188zm392.05-89.9068l-1.0064.1409a1255.082 1255.082 0 00-18.1268 2.6925c-42.3805 10.245-83.7043 22.8629-124.3377 35.2698-17.154 5.238-34.891 10.653-52.27 15.75-31.859 9.343-60.777 17.108-88.409 23.74-22.9103 5.4913-45.1538 10.3721-66.8538 14.6637 4.6905.841 9.3626 1.6464 14.0145 2.4158l-.8708-.1442c25.129-4.3469 50.4426-9.504 75.8491-15.4578 29.398-6.903 59.235-15.068 91.218-24.963 21.227-6.567 42.909-13.772 63.876-20.739 34.9885-11.6262 70.5004-23.4264 106.9169-33.3687zm830.3441 90.5874l1.7965.5386a703.9276 703.9276 0 007.8449 2.296c1.6906.1721 3.3823.3398 5.0752.5024 2.0984.2015 4.1937.3962 6.286.584a666.0838 666.0838 0 01-9.2615-3.2524c-3.233-.1659-6.4702-.347-9.7118-.5434a916.4133 916.4133 0 01-2.0293-.1252zm-1195.9591-.8196l-.477.1049a2098.6332 2098.6332 0 01-11.1274 2.4276c4.4767.762 8.9505 1.4947 13.419 2.1979a1570.9566 1570.9566 0 0011.5542-2.2308c-4.4427-.8018-8.9-1.6352-13.3688-2.4996zm1185.5033 1.586l.4322.079a786.1478 786.1478 0 0014.8879 2.5832 734.691 734.691 0 01-7.3417-1.6918 835.2334 835.2334 0 01-7.9784-.9703zm-1.6569-1.6087l.6777.169a764.2793 764.2793 0 009.0377 2.1898c3.564.4162 7.1311.8094 10.7026 1.18a716.2727 716.2727 0 01-9.3347-2.7619 904.8748 904.8748 0 01-11.0833-.7769zm-1198.011-2.813l-1.5382.3754c-3.414.8319-6.807 1.654-10.1811 2.4665 4.5552.8368 9.1118 1.6443 13.6663 2.422a2168.4131 2168.4131 0 0011.646-2.54c-4.52-.8757-9.0523-1.7842-13.593-2.7238zm357.8589-83.6604l-1.3814.2187a1363.2895 1363.2895 0 00-16.2926 2.6966c-50.2919 10.7316-99.4067 24.4287-147.5967 37.8677-11.031 3.076-22.44 6.257-33.632 9.338-31.615 8.769-59.605 16.132-85.569 22.509-20.7086 5.0833-40.1624 9.644-58.6572 13.7404 4.4886.8659 8.964 1.7004 13.4247 2.503 21.8615-4.3156 44.276-9.23 67.368-14.7649 27.625-6.631 56.537-14.395 88.388-23.735 17.377-5.096 35.113-10.512 52.265-15.749 39.7835-12.1473 80.229-24.4969 121.6832-34.6245zm880.8342 84.3652l-1.6381.0132c-3.7635.0277-7.53.0357-11.2993.0242a672.9303 672.9303 0 009.1714 3.9442c4.195.163 8.3817.3001 12.5592.4115a636.1946 636.1946 0 01-8.7932-4.393zm-52.4127 1.1358l2.0809.416a802.845 802.845 0 007.3097 1.4188c3.3492.4409 6.699.8606 10.0505 1.26a766.579 766.579 0 01-9.1031-2.2304 879.8583 879.8583 0 01-10.338-.8644zm26.2073-1.2201l1.3803.5169a702.3775 702.3775 0 008.0863 2.9638c4.1003.2105 8.1935.3965 12.2786.558a675.478 675.478 0 01-9.0938-3.9198 1071.5847 1071.5847 0 01-12.6514-.119zm-13.0358-.2771l1.3978.4443a736.7934 736.7934 0 008.3294 2.5807 1056.4804 1056.4804 0 0011.9466.6901 718.9974 718.9974 0 01-9.3528-3.4495 1082.2388 1082.2388 0 01-12.321-.2656zm-12.6954-.4284l1.049.2772a789.022 789.022 0 008.8869 2.2906c3.8076.2968 7.6229.5691 11.447.8178a757.7886 757.7886 0 01-9.5466-2.9813 967.2954 967.2954 0 01-11.8363-.4043zm-10.6245.9585l.1141.0174a841.6847 841.6847 0 0015.3978 2.2457 784.767 784.767 0 01-7.4597-1.4863 881.8387 881.8387 0 01-8.0521-.7768zM699.6514 90.2048l-.2667.0477c-74.883 13.1793-148.0793 32.1516-219.5486 50.6762-20.862 5.407-42.433 10.998-63.587 16.322-17.5395 4.4144-34.3249 8.6134-50.6194 12.5924 4.5548.9407 9.1007 1.85 13.6347 2.7274 18.631-4.1229 38.2362-8.7167 59.1177-13.8419 25.959-6.377 53.946-13.739 85.558-22.507 11.192-3.081 22.599-6.262 33.63-9.338 46.4264-12.9473 93.7106-26.1337 142.0813-36.6788zm839.7545 79.098l2.2682.4888a821.2832 821.2832 0 007.6827 1.6077 892.215 892.215 0 0011.0596.9466 789.4843 789.4843 0 01-9.6314-2.5042 946.4585 946.4585 0 01-11.3791-.539zm-1.442-.0782a938.1249 938.1249 0 01-10.4816-.6345c3.191.5502 6.377 1.0803 9.56 1.5913 3.4045.3608 6.8114.7018 10.2215 1.0232a812.5754 812.5754 0 01-8.0527-1.7074zm56.6016-3.3405l-.6368.027c-4.2574.177-8.5126.33-12.765.459a717.8974 717.8974 0 009.178 4.1148c4.3437.0155 8.684.005 13.02-.0317a676.9105 676.9105 0 01-8.7962-4.5691zm-13.9616.5022l-1.6815.0497c-3.8206.1083-7.6388.1973-11.4544.2669a760.5328 760.5328 0 009.4953 3.6517c4.2567.0678 8.5112.1104 12.7624.128a728.0907 728.0907 0 01-9.1218-4.0963zm-13.7687.3279l-2.8953.0475a1121.629 1121.629 0 01-11.9653.1169l2.0186-.011a783.1198 783.1198 0 009.7806 3.1977l.855.0237c3.8763.1055 7.7507.1902 11.6228.2542a748.436 748.436 0 01-9.4164-3.629zm-26.028.1542l1.1333.3171a818.6163 818.6163 0 008.9123 2.4317c4.5756.1896 9.1667.3466 13.776.4718l-1.7087-.0476a786.095 786.095 0 01-9.665-3.1695l-1.2805.0067c-3.7363.0166-7.4582.0132-11.1675-.0102zm-23.6152.9835l.0215.0025a887.2593 887.2593 0 0015.5828 1.8668 857.0141 857.0141 0 01-7.522-1.2802 914.525 914.525 0 01-8.0823-.589zm10.6405-1.1483l1.98.4565a844.9639 844.9639 0 008.2087 1.8403c3.91.2148 7.8291.4055 11.759.5723a817.6072 817.6072 0 01-9.8678-2.7112 992.9493 992.9493 0 01-12.0799-.1579zm-12.6545-.323l.505.0947a872.331 872.331 0 009.6448 1.7418c3.7428.2571 7.4914.4912 11.2478.7031a852.2065 852.2065 0 01-9.8622-2.238 999.7076 999.7076 0 01-11.5354-.3016zm-12.1115-.4626l.5267.076a897.479 897.479 0 009.204 1.2805 936.381 936.381 0 0010.3315.79 908.6065 908.6065 0 01-9.4684-1.7343 952.2972 952.2972 0 01-10.5938-.4122zm-10.3688-.5172l.9337.0976c4.902.5057 9.805.972 14.7136 1.3991a890.9216 890.9216 0 01-7.5728-1.0843 957.9497 957.9497 0 01-8.0745-.4124zm50.1692-2.086l-.645.0244-2.8913.1029c-3.154.1082-6.3054.2022-9.4541.282 3.384.9978 6.751 1.9682 10.1036 2.912a1044.8096 1044.8096 0 0012.6084.0126 850.9186 850.9186 0 01-9.7216-3.334zm13.9719-.6072l-.1084.0047c-4.4153.2186-8.819.4113-13.211.5783a857.3526 857.3526 0 009.8069 3.3538c4.314-.0239 8.633-.0732 12.9556-.1474a826.6311 826.6311 0 01-9.4431-3.7894zm-27.7329 1.0353l-1.315.0319c-3.791.0885-7.5777.1564-11.3593.2037a877.1291 877.1291 0 0010.3382 2.4778c4.0913.0821 8.1964.1399 12.3172.1728a865.7618 865.7618 0 01-9.981-2.8862zm41.9023-1.824l-2.6115.1575c-3.6697.2183-7.332.419-10.9865.602a820.8467 820.8467 0 009.5084 3.8082c4.4026-.0788 8.8094-.1828 13.2192-.3127a802.0854 802.0854 0 01-9.1296-4.255zm-55.5094 2.0701l-2.0948.023c-3.4.0326-6.7958.0486-10.1866.048 3.507.705 7.0043 1.3868 10.4938 2.0454 3.9661.133 7.9434.2418 11.9332.327a883.5603 883.5603 0 01-10.1455-2.4434zm69.8826-3.0445l-2.3315.1694c-3.8503.2766-7.693.5341-11.5278.7724a769.4546 769.4546 0 009.174 4.2704c4.4876-.1337 8.9787-.2948 13.4723-.4826a742.3538 742.3538 0 01-8.787-4.7296zm-95.0593 3.0324l2.3512.3721c2.7136.4256 5.4242.8382 8.1324 1.238 3.7918.1783 7.5913.3337 11.4002.467a889.9269 889.9269 0 01-10.1544-1.9942 1044.8608 1044.8608 0 01-11.7295-.0829zm-12.372-.2322l1.5911.1907c2.8303.3359 5.6595.6584 8.4886.9677 3.4917.2112 6.9883.4025 10.4911.575a911.2888 911.2888 0 01-9.7801-1.5222c-3.6038-.0517-7.201-.122-10.7908-.2112zm-10.7119-.3234l.3954.0331c5.2503.43 10.5049.8164 15.7688 1.1594a917.9455 917.9455 0 01-7.8547-.9319 999.6618 999.6618 0 01-8.3095-.2606zm37.1343-2.2563l-2.5588.1036c-3.4368.1363-6.8658.2564-10.2867.3601a926.9484 926.9484 0 0010.572 2.205c4.1691.0047 8.3458-.0152 12.5288-.0603a913.0225 913.0225 0 01-10.2553-2.6084zm-13.8069.4935l-2.4586.0686a1082.855 1082.855 0 01-9.9576.225c3.551.6151 7.0936 1.2075 10.6305 1.7777 4.0398.0577 8.0882.0913 12.1438.1011a928.2083 928.2083 0 01-10.3581-2.1724zm27.7905-1.1677l-2.7537.1457a1123.056 1123.056 0 01-10.4297.4938 895.7797 895.7797 0 0010.381 2.6316 1026.638 1026.638 0 0012.8453-.2278 910.9992 910.9992 0 01-10.0429-3.0433zm-41.4236 1.4837l-2.4424.0372c-3.142.0458-6.2762.0776-9.4021.0955 3.5019.4698 6.999.92 10.4941 1.3498 3.8638.1048 7.7368.188 11.6174.2493a937.292 937.292 0 01-10.267-1.7318zm55.5773-2.3528l-.4504.0305c-1.794.1222-3.5848.24-5.3723.3534-2.5542.1579-5.105.3069-7.6521.4471a902.5221 902.5221 0 0010.1345 3.0627c3.378-.0834 6.7602-.1831 10.1451-.2993.9891-.034 1.9788-.0692 2.9692-.1058a903.5243 903.5243 0 01-9.774-3.4886zm-79.8863 2.4822l1.1437.1122c2.882.2786 5.7638.544 8.6465.7962 3.584.1441 7.1769.2698 10.7774.3764a931.8942 931.8942 0 01-9.7323-1.2731c-3.6235.0146-7.2354.0109-10.8353-.0117zm94.2197-3.5502c-4.6019.3704-9.1839.7128-13.7452 1.0274 3.31 1.2 6.5872 2.3678 9.8372 3.5044 4.4568-.1665 8.9267-.3603 13.4083-.5807a883.6792 883.6792 0 01-9.9492-4.1417zm-104.669 3.4313l.287.0183c5.021.3052 10.0613.5724 15.119.8014a927.8769 927.8769 0 01-7.4501-.719 1043.843 1043.843 0 01-7.9559-.1007zm119.2298-4.6897l-2.1996.2011c-3.9586.3585-7.9031.6968-11.8331 1.0147a890.9023 890.9023 0 009.5482 3.9666c4.5423-.227 9.0976-.48 13.6642-.7602a845.5746 845.5746 0 01-7.3824-3.5459 785.4197 785.4197 0 01-1.7973-.8763zm-109.5776 3.1636l-1.4762.0493c-3.4426.1113-6.8751.2051-10.2984.2816 3.37.375 6.7387.7318 10.1068 1.0704 3.8822.0333 7.7787.045 11.6884.0347a961.4322 961.4322 0 01-10.0206-1.436zm13.674-.5497l-2.4657.1124c-3.3222.1474-6.6344.2788-9.9372.3942a941.5253 941.5253 0 0010.3877 1.4735c4.0723-.017 8.1595-.058 12.26-.1226a957.021 957.021 0 01-10.2448-1.8575zm-27.1628.9174l-.5817.012c-3.3623.0675-6.7158.1183-10.061.1523 3.1284.2393 6.2658.4631 9.411.6719 3.5114.0758 7.0352.1333 10.5709.1725a939.9857 939.9857 0 01-9.3392-1.0087zm41.0308-1.6537c-4.305.256-8.592.4857-12.862.689 3.4967.65 6.9835 1.2784 10.4629 1.8854 4.2083-.0718 8.431-.168 12.6665-.2892a972.0474 972.0474 0 01-10.4746-2.3328zm96.8265-3.3305l-.4862.0507c-4.6255.4795-9.233.932-13.8217 1.3575l1.5033.735a850.3527 850.3527 0 007.708 3.7008c4.6267-.2866 9.2655-.6005 13.9151-.9422a848.129 848.129 0 01-8.8185-4.9018zm-151.1201 5.1725l-2.3245.0141a997.005 997.005 0 01-5.255.0137 956.016 956.016 0 0014.5519.498 955.553 955.553 0 01-6.9724-.5258zm68.3669-2.7676l-2.1447.1518c-3.7135.2607-7.4128.502-11.0987.724a949.6292 949.6292 0 0010.408 2.3072c4.3247-.128 8.6629-.2817 13.0132-.4615a954.6923 954.6923 0 01-10.1778-2.7215zm14.278-1.1194l-.7763.0653c-4.285.3593-8.5497.6934-12.7957 1.0022l1.9423.5284a944.6762 944.6762 0 008.3345 2.2126c4.4222-.1871 8.8576-.4 13.3043-.6399a934.5067 934.5067 0 01-4.9511-1.5505 745.7789 745.7789 0 01-5.058-1.6181zM944.9794 64.6716l-.2404.1307a1535.9212 1535.9212 0 00-10.9064 5.9403c10.7846.8199 21.6538 1.8847 32.6375 3.194 43.058 5.133 87.912 14.08 137.125 27.351l2.88.779c21.551 5.828 43.836 11.854 65.619 17.491 68.405 17.804 142.77 35.008 223.053 40.288 5.6325.3706 11.3069.691 17.0201.9613 1.9183.0123 3.8391.0178 5.7629.0178 1.545 0 3.0917-.0036 4.6401-.0107a942.8067 942.8067 0 01-10.6446-.9329c-78.48-7.319-152.423-26.531-215.571-43.964-17.224-4.704-34.929-9.674-52.051-14.481-4.873-1.368-9.757-2.739-14.652-4.11-65.9598-18.385-126.2805-29.1224-184.6722-32.6545zm11.5967-6.171l-2.3192 1.2222a1215.7216 1215.7216 0 00-8.9402 4.7682c16.6018 1.0194 33.366 2.6203 50.4109 4.8061 42.68 5.475 86.527 14.574 134.047 27.819 4.895 1.371 9.779 2.742 14.652 4.11 17.121 4.807 34.826 9.776 52.05 14.481 63.129 17.427 137.05 36.634 215.493 43.951 4.394.4102 8.8067.7902 13.2367 1.1401 3.8462-.0276 7.703-.0774 11.5714-.1494a966.025 966.025 0 01-8.0431-.9562c-70.639-8.687-135.994-26.71-208.003-47.629-10.253-2.979-20.806-6.058-31.011-9.037-11.068-3.229-22.513-6.57-33.894-9.874-70.0187-20.1866-135.7722-31.6509-199.2505-34.652zM933.4024 70.979l-.4933.2715a2169.8501 2169.8501 0 00-10.4337 5.7828c4.8848.4461 9.79.9429 14.7187 1.4894 43.342 4.808 89.208 13.618 140.223 26.937 90.137 23.533 192.304 50.207 300.907 54.573a980.467 980.467 0 0028.4764.73 904.5547 904.5547 0 01-11.6844-.6931c-80.322-5.281-154.712-22.49-223.137-40.299-21.785-5.638-44.071-11.666-65.623-17.494l-2.88-.778C1042.7138 85.1131 986.917 75.0374 933.4024 70.979zm35.3348-18.754l-.1014.052c-3.877 1.966-7.739 3.9602-11.5875 5.9774 22.3107 1.0582 44.8496 3.1724 67.9213 6.3562 42.221 5.827 85.067 15.096 130.984 28.333 11.381 3.305 22.826 6.645 33.895 9.875 10.205 2.978 20.756 6.058 31.01 9.036 71.991 20.914 137.328 38.933 207.934 47.616 3.2374.3985 6.4718.7802 9.7042 1.145 4.064-.0825 8.1419-.1893 12.2337-.3205a947.1406 947.1406 0 01-5.1857-.7911c-67.864-10.53-130.403-29.759-196.614-50.118l-3.823-1.175c-17.074-5.249-39.678-12.179-63.105-19.231-74.8502-22.3381-145.0705-34.4663-213.2656-36.755zm553.4916 103.5878l-2.1097.2019c-3.9454.3747-7.873.7283-11.7839 1.061 1.5218.4926 3.0485.9806 4.5795 1.4643a930.2144 930.2144 0 005.498 1.72c2.7437-.1502 5.4926-.3102 8.2454-.4804 1.7709-.1124 3.545-.229 5.3222-.35-.7952-.2899-1.5935-.5816-2.3936-.8753a762.143 762.143 0 01-7.358-2.7415zM983.1442 45.0977c-4.703 2.2666-9.3817 4.5834-14.0388 6.9414 28.0117.9737 56.483 3.594 85.0934 7.8429 41.113 6.106 84.156 15.826 127.934 28.89 23.429 7.053 46.033 13.983 63.109 19.233l3.822 1.174c66.196 20.355 128.72 39.579 196.553 50.105 2.1295.3308 4.2567.6541 6.3819.9698 4.2116-.1403 8.4388-.3064 12.6819-.4986l-2.3277-.4397c-59.431-11.3-114.41-29.293-172.617-48.342-6.614-2.165-13.454-4.404-20.251-6.616-20.599-6.703-41.226-13.281-61.308-19.55-56.665-17.52-139.263-39.712-225.874-39.712zm251.209 35.5366c-93.4305-29.9527-169.6451-43.1763-238.8339-41.353a685.3704 685.3704 0 00-11.8326 5.5552c31.6357.0307 64.4943 2.998 99.6322 8.967 37.914 6.441 78.8 16.515 124.993 30.797 20.084 6.27 40.712 12.849 61.312 19.552 6.798 2.212 13.637 4.452 20.252 6.616 58.194 19.046 113.16 37.034 172.564 48.328 1.083.2062 2.165.4102 3.2462.6123 4.3319-.1998 8.6814-.4272 13.0486-.6819-51.4744-11.7822-99.2532-28.5486-149.8275-46.2976-11.401-4.001-23.19-8.139-35.047-12.225-19.078-6.574-39.1-13.26-59.507-19.87zm302.6074 73.6643l-.854.093c-4.4678.4825-8.912.9385-13.3336 1.3681a713.8863 713.8863 0 006.9667 2.5956c.9466.3474 1.8906.6921 2.8321 1.0342 4.5843-.3144 9.1913-.657 13.8184-1.0277a797.0836 797.0836 0 01-9.4296-4.0632zM1260.528 76.4608c-93.195-31.175-172.22-45.294-241.594-43.159-3.698.1137-7.3763.2741-11.0358.4796a609.4364 609.4364 0 00-11.8521 5.2598c4.039-.1028 8.0972-.1539 12.1781-.1539 32.912 0 67.267 3.332 104.351 10.094 37.169 6.777 77.047 17.063 121.917 31.447 20.409 6.612 40.433 13.299 59.514 19.874 11.858 4.086 23.648 8.224 35.049 12.225 50.703 17.794 98.596 34.601 150.209 46.383l.2982.0681c4.4367-.262 8.893-.5523 13.3687-.8707-43.318-11.895-83.7643-27.2242-126.5291-43.4299-15.589-5.909-31.708-12.018-48.166-18.026-19.251-7.028-38.667-13.821-57.708-20.191zm291.4034 76.125l-.0123.0003-2.333.2786c-4.065.4818-8.1097.9421-12.135 1.381a792.9337 792.9337 0 009.4669 4.0736c4.6768-.3766 9.3752-.7823 14.0934-1.2166-3.0522-1.4947-6.0758-3-9.08-4.5168zM1051.3447 26.997c-9.4282-.2443-18.72-.1085-27.8862.3698-5.0165 1.975-9.9995 4.0295-14.9515 6.1546a427.6788 427.6788 0 0110.413-.4466c4.552-.14 9.16-.21 13.816-.21 15.473 0 31.479.771 47.752 2.306 19.639 1.85 40.288 4.871 61.376 8.977 36.741 7.154 75.603 17.657 118.807 32.11 19.044 6.37 38.463 13.165 57.718 20.194 16.46 6.009 32.58 12.118 48.17 18.026 43.753 16.582 85.079 32.243 129.531 44.246l-2.454-.6664c4.5355-.3256 9.0911-.68 13.668-1.0636-35.8628-11.6367-69.5541-25.517-105.1223-40.1698-19.162-7.893-38.974-16.055-59.569-24.026-18.192-7.04-37.003-13.941-55.91-20.51-79.721-27.7-161.106-43.362-235.358-45.291zm515.7892 123.6692l-1.1458.1508a1336.234 1336.234 0 01-13.6064 1.7133 807.9071 807.9071 0 0011.0086 5.4553l-1.8986-.9272c4.7677-.4407 9.5556-.9106 14.363-1.4097a894.4454 894.4454 0 01-8.7208-4.9825zM1083.7637 20.6933c-15.5899-.6375-30.7881-.1867-45.645 1.179a479.1016 479.1016 0 00-13.985 5.231 357.771 357.771 0 0117.988-.4523c3.058 0 6.147.039 9.234.119 74.299 1.932 155.732 17.602 235.495 45.317 18.911 6.57 37.725 13.472 55.921 20.514 20.6 7.972 40.414 16.135 59.577 24.029 35.7183 14.715 69.544 28.6496 105.5716 40.3125 4.6319-.3912 9.285-.8116 13.961-1.2619-29.1115-11.031-56.648-23.4392-85.6626-36.5133-22.108-9.961-44.967-20.261-69.231-30.222-16.617-6.823-34.823-13.83-54.109-20.83-77.02-27.689-158.387-44.531-229.115-47.422zm32.4206-6.3042c-21.8633-1.224-42.9245-.2148-63.327 2.54-4.6492 1.466-9.2663 3.0123-13.8533 4.6324 10.2824-.9243 20.4809-1.3832 30.7007-1.3832 4.685 0 9.375.097 14.078.289 36.821 1.506 76.024 6.639 116.52 15.256 37.696 8.021 75.623 18.852 112.727 32.191 19.293 7.002 37.503 14.012 54.125 20.836 24.27 9.963 47.132 20.265 69.242 30.228 29.1372 13.1291 56.7833 25.5855 86.0257 36.6505 4.7215-.4572 9.4657-.9444 14.2346-1.4622-23.0622-10.1238-45.0515-21.0238-68.1647-32.4835-24.424-12.107-49.681-24.629-77.128-36.592-15.994-6.97-33.594-14.087-52.311-21.149-75.103-28.112-154.254-45.71-222.869-49.553zm9.749-7.1145c-20.0358 0-39.3876 1.8967-58.176 5.2803-4.5971 1.2488-9.1611 2.5843-13.6945 3.9974 14.7092-1.9448 29.167-2.9092 43.6585-2.9092 6.149 0 12.306.174 18.489.52 68.66 3.845 147.856 21.453 222.999 49.58 18.724 7.065 36.329 14.183 52.328 21.157 27.456 11.967 52.717 24.489 77.146 36.599 23.2153 11.5085 45.2948 22.4545 68.4647 32.6135a1255.1016 1255.1016 0 0014.5104-1.6658c-17.7246-8.9552-34.7826-18.3107-52.6561-28.1132-26.118-14.324-53.127-29.138-83.262-43.096-15.407-7.135-32.402-14.359-50.512-21.468-72.19-28.169-151.147-47.007-216.624-51.685a317.375 317.375 0 00-22.671-.81zm28.221-6.668c-29.4597 0-57.4095 4.2338-84.2415 11.366l1.0158-.1728 1.5627-.2632c18.087-3.004 35.723-4.494 53.397-4.494 7.563 0 15.134.272 22.749.816 34.219 2.445 71.274 8.507 110.138 18.018 35.556 8.702 72.423 20.354 106.614 33.695 18.118 7.113 35.12 14.339 50.532 21.478 30.148 13.964 57.16 28.779 83.284 43.106 17.9572 9.8482 35.0904 19.245 52.901 28.2374 4.8983-.593 9.8221-1.2172 14.774-1.8732-13.1306-7.6014-25.9086-15.3866-39.242-23.5102-27.181-16.562-55.287-33.688-87.523-49.626-15.128-7.43-31.518-14.761-48.712-21.788-70.402-28.675-147.082-48.29-210.379-53.815-9.107-.795-18.047-1.174-26.87-1.174zM738.4291 82.6509l-1.7881.327c-8.6094 1.5878-17.1836 3.28-25.7236 5.0609a1342.2817 1342.2817 0 0114.748-2.3848 1067.7775 1067.7775 0 0112.7637-3.0031zm22.4726-3.8435l-2.5536.4098a982.4038 982.4038 0 00-14.7208 2.4968 1041.0318 1041.0318 0 00-15.1676 3.508c6.0463-.93 12.1037-1.8167 18.172-2.6578a968.891 968.891 0 0114.27-3.7568zm20.3495-2.998l-1.043.1418a895.901 895.901 0 00-16.7997 2.4618 956.8289 956.8289 0 00-14.95 3.8996 1156.0216 1156.0216 0 0118.9412-2.4384 943.9754 943.9754 0 0113.8515-4.0648zm-5.205-.7233l-1.2418.23c-8.7351 1.6269-17.4214 3.391-26.062 5.2708a956.369 956.369 0 0114.5882-2.3944 855.9727 855.9727 0 0112.7156-3.1064zm35.3759-2.8041l-.8989.0878c-9.2517.915-18.4608 1.9939-27.6286 3.2183-4.7283 1.3372-9.4385 2.7135-14.132 4.1229 7.708-.9173 15.4336-1.7553 23.1765-2.5073a687.848 687.848 0 014.8207-.4512c4.8675-1.5242 9.7545-3.0163 14.6623-4.4705zm-14.632-.7412l-1.1057.1734a771.7082 771.7082 0 00-14.986 2.5265 844.0287 844.0287 0 00-14.8726 3.566 884.964 884.964 0 0116.9755-2.4374 823.9678 823.9678 0 0113.9888-3.8285zm118.1922-1.7252a1665.4248 1665.4248 0 00-10.9999 5.756 739.503 739.503 0 0118.0481 1.4202c3.6262-2.021 7.2645-4.0385 10.916-6.0466a726.875 726.875 0 00-15.6955-1.0123zm-86.1841.9707l-1.7696.1323-2.6245.206c-3.9224.3153-7.837.6614-11.744 1.0368a986.6414 986.6414 0 00-14.7875 4.4921 679.2841 679.2841 0 0117.4359-1.3167 1006.073 1006.073 0 0113.4897-4.5505zm67.7175-1.6634l-1.2342.6a1395.3892 1395.3892 0 00-9.8767 4.8579c6.0107.241 12.0433.561 18.1031.9592 3.65-1.9255 7.3132-3.844 10.9903-5.7495a711.1855 711.1855 0 00-17.9825-.6676zm-50.3478.599l-.741.036a686.6889 686.6889 0 00-15.643.9554 986.8702 986.8702 0 00-13.5805 4.5686 672.9086 672.9086 0 0117.2357-.8355 1038.0746 1038.0746 0 0112.7288-4.7245zm-17.0042-2.4976l-1.7937.1973c-9.5012 1.0619-18.9406 2.3263-28.3216 3.7678a815.4992 815.4992 0 00-14.6161 3.964c9.3395-1.2299 18.7222-2.3075 28.1495-3.214 5.5-1.6221 11.0268-3.1962 16.5819-4.7151zm50.6275 1.6905l-2.0367.0022a1186.3933 1186.3933 0 00-11.2639 5.1585 693.365 693.365 0 0118.4053.4841 1380.6283 1380.6283 0 0111.0945-5.4497 699.1728 699.1728 0 00-16.1992-.1951zm-21.388.3223l-2.435.0791a685.5012 685.5012 0 00-8.9873.3664c-4.2789 1.5521-8.5401 3.1323-12.7856 4.7365a682.705 682.705 0 0112.7624-.3191 1074.101 1074.101 0 0111.4454-4.8629zm18.7705-.318l-.038-.0004c-6.0304.0206-12.0431.12-18.0422.2978a1054.739 1054.739 0 00-11.4911 4.874 680.336 680.336 0 0118.3323-.0223 1181.3725 1181.3725 0 0111.239-5.149zm-65.8057-1.0733l-.7565.1414c-8.5166 1.5923-16.9755 3.3415-25.381 5.2241a759.9283 759.9283 0 0113.726-2.2396 741.3509 741.3509 0 0112.4115-3.1259zm33.3005-2.1216l-1.283.1091a637.5099 637.5099 0 00-12.7458 1.2312c-5.6352 1.531-11.2417 3.119-16.8212 4.7567 3.5099-.3315 7.0256-.6394 10.5476-.9226a701.94 701.94 0 015.331-.408c4.9666-1.6295 9.9568-3.2205 14.9714-4.7664zm82.06-1.9246l-2.259 1.146a1301.4264 1301.4264 0 00-9.0234 4.6297 723.426 723.426 0 0117.9315 1.1317c3.6986-2.0314 7.411-4.0544 11.138-6.0624a713.315 713.315 0 00-17.7872-.845zM849.614 61.927l-.1242.0157c-11.4086 1.398-22.7067 3.127-33.904 5.1337-4.8096 1.135-9.5987 2.3205-14.3686 3.5506 9.7148-1.461 19.4917-2.7314 29.3355-3.782 6.3163-1.7143 12.669-3.3574 19.0613-4.918zm11.0668 2.6565l-1.2591.0744-2.5981.1622a610.287 610.287 0 00-11.0473.8113c-5.0561 1.5518-10.0881 3.15-15.0972 4.7884a695.3967 695.3967 0 0116.2274-.9663c4.5714-1.6574 9.1622-3.2826 13.7743-4.87zm47.8092-1.1873l-.535.2519a1104.774 1104.774 0 00-10.9367 5.231 706.278 706.278 0 0117.9413.6707c3.7432-1.9365 7.5003-3.861 11.2727-5.7668a705.0114 705.0114 0 00-17.7423-.3868zm-37.4085.6521l-1.2655.0563c-2.7493.126-5.4979.2682-8.2462.4264a888.8023 888.8023 0 00-13.8524 4.885 681.3647 681.3647 0 0111.299-.435 905.4421 905.4421 0 0112.0651-4.9327zm18.3504-.5686l-1.406.026a703.1274 703.1274 0 00-16.1983.5095 897.7347 897.7347 0 00-12.1232 4.9462 687.1284 687.1284 0 0120.1517-.2948l-2.1326.0045a986.3868 986.3868 0 0111.7084-5.1914zm18.514-.0883a702.5568 702.5568 0 00-17.9043.077c-3.9273 1.708-7.8393 3.4434-11.738 5.201l1.5525-.0028c5.5347 0 11.0787.0664 16.6362.1994 3.2815-1.5908 6.574-3.169 9.878-4.7314zm-45.6777-2.869l-2.2667.2307a567.0388 567.0388 0 00-8.434.9388c-6.5532 1.5821-13.0643 3.2513-19.5369 4.9968 4.5364-.4733 9.087-.9001 13.6524-1.2772 5.4981-1.6866 11.0258-3.3192 16.5852-4.8892zm14.8855-4.7266l-.7857.0987c-19.255 2.4581-38.1401 5.9667-56.719 10.2345 10.5212-1.8177 21.133-3.3846 31.8431-4.658 8.4815-2.0464 17.033-3.9464 25.6616-5.6752zm-.5394 3.4897l-.7248.0523a542.7778 542.7778 0 00-12.2933 1.0542c-5.6341 1.5819-11.236 3.2274-16.8076 4.9294a606.5653 606.5653 0 0110.005-.7263 709.6678 709.6678 0 014.6814-.2854c5.0202-1.7214 10.066-3.3988 15.1393-5.0242zm62.0221-1.4093l-2.235 1.0981a1045.4662 1045.4662 0 00-9.2814 4.629 718.4668 718.4668 0 0117.7315.859c3.7368-2.0105 7.4881-4.007 11.255-5.9832a715.248 715.248 0 00-17.47-.6029zm-53.992.8862l-.7551.0423a526.5148 526.5148 0 00-6.265.4072c-5.1144 1.6324-10.2004 3.3169-15.2607 5.0475a698.5253 698.5253 0 019.3565-.4657 771.0932 771.0932 0 0112.9243-5.0313zm17.6414-.7562l-.3721.0112c-4.231.1278-8.4541.2942-12.6701.4992-1.2622.0614-2.523.1273-3.7824.1978a788.4395 788.4395 0 00-13.0006 5.0483 696.8722 696.8722 0 0117.5096-.5166 829.4476 829.4476 0 0112.3156-5.2399zm19.9993-.305l-1.4743.004a912.36 912.36 0 00-11.8683 5.478c5.882.0596 11.7736.1938 17.6804.4024 3.819-1.9273 7.654-3.8359 11.5056-5.7199a702.1949 702.1949 0 00-15.8434-.1644zm-2.0349.005l-.5187.002a695.3838 695.3838 0 00-16.8068.2794c-4.1343 1.7164-8.2505 3.4678-12.3507 5.2486a697.4621 697.4621 0 0117.8244-.0589c3.9337-1.8483 7.884-3.6742 11.8518-5.4711zm-37.8592-2.5436l-.7662.0882c-.4457.0522-.8911.105-1.3364.1584-9.034 1.7653-17.9832 3.7194-26.8556 5.8356a552.0004 552.0004 0 0110.0794-1.0733c6.2513-1.7526 12.5431-3.4262 18.8788-5.0089zm11.6336-1.2089l-1.83.171c-2.673.256-5.3388.5333-7.9974.8312-6.4956 1.603-12.944 3.3031-19.3497 5.0876a539.6387 539.6387 0 0112.6895-1.0531c5.463-1.7422 10.958-3.424 16.4875-5.0367zm4.9138-.4273l-1.4303.1184c-.7507.0637-1.5008.129-2.2504.1961-5.6047 1.6247-11.1735 3.32-16.7094 5.0778 2.2638-.1557 4.532-.298 6.8047-.4255 4.5069-1.7005 9.0346-3.3586 13.5854-4.9668zm17.1417-1.0935l-2.5136.1212c-4.577.2328-9.1318.532-13.6655.8938-4.5993 1.617-9.1749 3.2863-13.7288 5.0003l.3682-.0203 2.6812-.1373a706.1064 706.1064 0 0113.6617-.533c4.3785-1.8157 8.7769-3.5929 13.1968-5.3247zm35.1216-.5802l-.3624.1707a857.4499 857.4499 0 00-11.6974 5.6069c5.8001.1282 11.61.3288 17.4354.6014 3.8768-2.0306 7.7701-4.04 11.6811-6.0218a705.8267 705.8267 0 00-17.0567-.3572zm-17.8727.07l-1.6944.0292a697.347 697.347 0 00-9.9708.2611 462.1141 462.1141 0 00-4.8957.1893c-4.4363 1.7356-8.851 3.5165-13.2457 5.337a702.54 702.54 0 0119.9782-.2837l-2.7096.0059c4.1599-1.8804 8.3389-3.7288 12.538-5.5387zm17.3496-.0744a702.027 702.027 0 00-16.759.0638c-4.2078 1.8124-8.3962 3.6636-12.567 5.548l2.148-.0045c5.0394 0 10.0827.0542 15.1335.1628a873.0541 873.0541 0 0110.1037-4.856zm-47.8095-.4055l-1.206.1882a591.1512 591.1512 0 00-12.414 2.0983c-1.125.2683-2.2483.5392-3.3702.813a489.018 489.018 0 019.2894-.9215 643.5727 643.5727 0 017.7008-2.178zm3.7386-.5708l-1.6961.255a628.965 628.965 0 00-8.5175 2.3867 428.567 428.567 0 013.3863-.2839c2.27-.7989 4.5457-1.585 6.8273-2.3578zm20.5927-2.6797l-.9582.1072c-6.1337.691-12.2252 1.484-18.2768 2.3714a632.473 632.473 0 00-7.2343 2.4846 471.1698 471.1698 0 0115.9996-.9783 648.4008 648.4008 0 0110.4697-3.985zm-12.8902.13l-2.6552.5183c-6.1781 1.2214-12.3117 2.5412-18.4036 3.9496a585.8427 585.8427 0 0111.5502-1.8775 599.4353 599.4353 0 018.3432-2.2102c.388-.1285.7766-.2546 1.1654-.3803zm32.1726-1.9096l-.8073.0593a524.821 524.821 0 00-17.577 1.6216 641.7699 641.7699 0 00-10.6783 4.055l1.5212-.0634 2.7064-.0982a678.7645 678.7645 0 0112.2204-.297c4.1849-1.7992 8.3893-3.5605 12.6146-5.2773zm35.8201-1.3172c-5.6256 0-11.2743.0943-16.9327.2894-4.5992 2.0386-9.1738 4.1284-13.7267 6.2612a713.235 713.235 0 0116.9844.3772c4.6451-2.3517 9.3159-4.664 14.0133-6.9277zm-17.5208.3109l-2.208.083a467.562 467.562 0 00-8.4812.4191 510.462 510.462 0 00-6.9008.4517c-4.2645 1.7298-8.5084 3.5051-12.733 5.3202a700.395 700.395 0 0116.6612-.0396c4.5296-2.1218 9.0831-4.203 13.6618-6.2344zm-55.2288 4.4765l-1.5973.4228c-.3717.0992-.7433.1988-1.1147.2987.3291-.0473.6576-.0958.9863-.144.5745-.1933 1.15-.3858 1.7257-.5775zm28.4954-5.5906l-1.95.288a533.4174 533.4174 0 00-16.5837 2.7647 550.7728 550.7728 0 00-6.1955 1.5551c-1.38.4493-2.7581.9038-4.1341 1.3632 6.254-.9028 12.5508-1.7042 18.8928-2.396a583.8276 583.8276 0 019.9705-3.575zm20.304-2.5592l-.1113.0117c-6.3998.6744-12.7479 1.4708-19.0473 2.3794a575.0612 575.0612 0 00-10.2087 3.6436c6.0173-.6446 12.0749-1.1916 18.1753-1.6324 3.7153-1.5023 7.4452-2.9717 11.192-4.4023zm15.1345-8.3718l-1.4927.279c-18.41 3.4921-36.351 8.1887-53.9234 13.7364l1.3396-.2486c9.4425-2.3161 18.994-4.4025 28.6673-6.2192 8.6372-2.8198 17.0858-5.3302 25.4092-7.5476zm-27.117 8.1082l-.7889.1509c-7.5142 1.4516-14.9554 3.0646-22.3297 4.8203a529.3313 529.3313 0 0115.9581-2.5507 516.3565 516.3565 0 013.667-1.2537 540.443 540.443 0 013.4934-1.1668zm30.6205-1.331l-1.8684.1253a481.4766 481.4766 0 00-15.9454 1.3833 601.3614 601.3614 0 00-11.2994 4.4362 529.5095 529.5095 0 016.1874-.3998c3.7498-.22 7.5122-.3972 11.2894-.5315 3.8604-1.7077 7.739-3.3809 11.6364-5.0136zm17.9928-.8438l-2.008.0606c-2.1607.0686-4.3148.152-6.4623.25a469.4866 469.4866 0 00-8.869.4888 635.049 635.049 0 00-11.7047 5.0385 499.2727 499.2727 0 0117.2554-.2961l-.0144-.0006a684.5908 684.5908 0 0111.803-5.5412zm-25.4404-1.6968l-1.9072.275c-6.6014.9657-13.1442 2.065-19.6323 3.2857a532.8298 532.8298 0 00-7.6702 2.5724 497.5612 497.5612 0 0118.8456-2.3137 551.6224 551.6224 0 0110.3641-3.8194zm19.5071-2.3528l-1.753.176a461.6962 461.6962 0 00-16.715 2.0302 536.2233 536.2233 0 00-10.5774 3.8823 478.2575 478.2575 0 0117.6377-1.4677 567.1231 567.1231 0 0111.4077-4.6208zm1.811-4.7236l-2.3704.3401a399.41 399.41 0 00-12.2325 1.993c-8.9589 2.3257-17.8068 4.925-26.5574 7.7522 6.9109-1.2744 13.8841-2.4104 20.9245-3.3935l2.0729-.7302c6.1426-2.1481 12.1898-4.1334 18.1629-5.9616zm16.4529 3.2922l-2.877.1757a445.364 445.364 0 00-14.6305 1.1807 564.8145 564.8145 0 00-11.5131 4.6537 475.733 475.733 0 018.1987-.4455 472.197 472.197 0 019.0154-.324c3.916-1.787 7.851-3.536 11.8065-5.2406zm-.376-5.2066l-1.6881.166c-4.3902.4482-8.7521.972-13.0872 1.5668-6.8986 2.0908-13.732 4.3414-20.5059 6.7304a460.5708 460.5708 0 0118.1824-2.1328 506.5233 506.5233 0 0112.168-4.5779 488.2643 488.2643 0 014.9308-1.7525zm15.911-1.2065l-.5615.0292c-4.8706.27-9.7058.6364-14.5071 1.0936-5.7752 2.0086-11.5047 4.1272-17.1925 6.342a444.4522 444.4522 0 0117.332-1.3131c4.944-2.1231 9.9197-4.1774 14.929-6.1517zm-17.988-.9126l-2.2048.4123c-7.892 1.505-15.6931 3.2448-23.4114 5.1903a399.6243 399.6243 0 0113.0541-2.006 431.8324 431.8324 0 0112.5621-3.5966zm16.6159-2.6915l-1.999.2819a377.0843 377.0843 0 00-12.0802 1.948c-4.63 1.219-9.2294 2.5153-13.7997 3.8829a379.1867 379.1867 0 0114.2677-1.627c4.5833-1.5889 9.1168-3.0837 13.6111-4.4858zm15.8955-1.853l-.7838.0727a360.839 360.839 0 00-13.911 1.614c-4.686 1.4477-9.34 2.9735-13.9645 4.5705a371.0492 371.0492 0 0114.8115-1.0673 498.21 498.21 0 017.7486-2.9638 467.3757 467.3757 0 016.0992-2.2262zm-2.1583-2.177l-1.7735.333c-7.931 1.5167-15.7655 3.2834-23.5126 5.2699l.9786-.1641a379.9282 379.9282 0 0111.844-1.8041 413.0626 413.0626 0 0112.4635-3.6347zm16.561-2.6878l-1.2109.1678a358.2858 358.2858 0 00-13.0155 2.0915c-4.5625 1.2232-9.0937 2.5255-13.5957 3.9006 4.7906-.6349 9.5518-1.1709 14.2948-1.6078 4.5515-1.6137 9.0576-3.1306 13.5274-4.552zm13.853-4.1325l-.6575.1222c-8.459 1.594-16.8043 3.4869-25.047 5.6412l.2998-.0496 1.6028-.2719a361.4496 361.4496 0 0111.1546-1.69 392.8551 392.8551 0 0112.6473-3.752z" opacity=".5005"/>
</svg>
